<svg preserveAspectRatio="none" overflow="visible" style="display: block;" width="26" height="26" viewBox="0 0 26 26" fill="none" xmlns="http://www.w3.org/2000/svg">
<g id="at-icons:pause">
<path id="Vector" d="M8.125 1.625C8.55598 1.625 8.9693 1.7962 9.27405 2.10095C9.57879 2.4057 9.75 2.81902 9.75 3.25V22.75C9.75 23.181 9.57879 23.5943 9.27405 23.899C8.9693 24.2038 8.55598 24.375 8.125 24.375H4.875C4.44402 24.375 4.0307 24.2038 3.72595 23.899C3.4212 23.5943 3.25 23.181 3.25 22.75V3.25C3.25 2.81902 3.4212 2.4057 3.72595 2.10095C4.0307 1.7962 4.44402 1.625 4.875 1.625H8.125ZM21.125 1.625C21.556 1.625 21.9693 1.7962 22.274 2.10095C22.5788 2.4057 22.75 2.81902 22.75 3.25V22.75C22.75 23.181 22.5788 23.5943 22.274 23.899C21.9693 24.2038 21.556 24.375 21.125 24.375H17.875C17.444 24.375 17.0307 24.2038 16.726 23.899C16.4212 23.5943 16.25 23.181 16.25 22.75V3.25C16.25 2.81902 16.4212 2.4057 16.726 2.10095C17.0307 1.7962 17.444 1.625 17.875 1.625H21.125Z" fill="#201C1D"/>
</g>
</svg>
